<svg xmlns="http://www.w3.org/2000/svg" xmlns:xlink="http://www.w3.org/1999/xlink" width="1920" zoomAndPan="magnify" viewBox="0 0 1440 585.000005" height="780" preserveAspectRatio="xMidYMid meet" version="1.0"><defs><g/></defs><g fill="#1ca6af" fill-opacity="1"><g transform="translate(344.13732, 492.654285)"><g><path d="M 140.5625 -150.046875 L 83.953125 0 L 61.34375 0 L 4.734375 -150.046875 L 25.609375 -150.046875 L 72.765625 -20.671875 L 119.90625 -150.046875 Z M 140.5625 -150.046875 "/></g></g></g><g fill="#1ca6af" fill-opacity="1"><g transform="translate(489.639281, 492.654285)"><g><path d="M 36.171875 -134.109375 L 36.171875 -83.953125 L 90.84375 -83.953125 L 90.84375 -67.8125 L 36.171875 -67.8125 L 36.171875 -16.140625 L 97.296875 -16.140625 L 97.296875 0 L 16.578125 0 L 16.578125 -150.25 L 97.296875 -150.25 L 97.296875 -134.109375 Z M 36.171875 -134.109375 "/></g></g></g><g fill="#1ca6af" fill-opacity="1"><g transform="translate(600.057155, 492.654285)"><g><path d="M 134.546875 0 L 114.953125 0 L 36.171875 -119.46875 L 36.171875 0 L 16.578125 0 L 16.578125 -150.25 L 36.171875 -150.25 L 114.953125 -31 L 114.953125 -150.25 L 134.546875 -150.25 Z M 134.546875 0 "/></g></g></g><g fill="#1ca6af" fill-opacity="1"><g transform="translate(751.370544, 492.654285)"><g><path d="M 108.921875 -150.046875 L 108.921875 -134.109375 L 68.03125 -134.109375 L 68.03125 0 L 48.4375 0 L 48.4375 -134.109375 L 7.3125 -134.109375 L 7.3125 -150.046875 Z M 108.921875 -150.046875 "/></g></g></g><g fill="#1ca6af" fill-opacity="1"><g transform="translate(867.815078, 492.654285)"><g><path d="M 105.265625 -33.359375 L 39.828125 -33.359375 L 27.765625 0 L 7.109375 0 L 61.34375 -149.171875 L 83.953125 -149.171875 L 137.984375 0 L 117.3125 0 Z M 99.671875 -49.296875 L 72.546875 -125.0625 L 45.421875 -49.296875 Z M 99.671875 -49.296875 "/></g></g></g><g fill="#1ca6af" fill-opacity="1"><g transform="translate(1012.886565, 492.654285)"><g><path d="M 64.15625 1.5 C 54.25 1.5 45.382812 -0.253906 37.5625 -3.765625 C 29.738281 -7.285156 23.601562 -12.164062 19.15625 -18.40625 C 14.707031 -24.644531 12.410156 -31.859375 12.265625 -40.046875 L 33.15625 -40.046875 C 33.875 -33.003906 36.78125 -27.078125 41.875 -22.265625 C 46.96875 -17.460938 54.394531 -15.0625 64.15625 -15.0625 C 73.476562 -15.0625 80.828125 -17.394531 86.203125 -22.0625 C 91.585938 -26.726562 94.28125 -32.722656 94.28125 -40.046875 C 94.28125 -45.785156 92.703125 -50.445312 89.546875 -54.03125 C 86.390625 -57.613281 82.441406 -60.335938 77.703125 -62.203125 C 72.972656 -64.078125 66.585938 -66.085938 58.546875 -68.234375 C 48.648438 -70.816406 40.722656 -73.398438 34.765625 -75.984375 C 28.804688 -78.566406 23.707031 -82.617188 19.46875 -88.140625 C 15.238281 -93.671875 13.125 -101.101562 13.125 -110.4375 C 13.125 -118.613281 15.203125 -125.859375 19.359375 -132.171875 C 23.523438 -138.484375 29.375 -143.363281 36.90625 -146.8125 C 44.445312 -150.257812 53.097656 -151.984375 62.859375 -151.984375 C 76.921875 -151.984375 88.4375 -148.460938 97.40625 -141.421875 C 106.375 -134.390625 111.429688 -125.0625 112.578125 -113.4375 L 91.0625 -113.4375 C 90.34375 -119.1875 87.328125 -124.25 82.015625 -128.625 C 76.703125 -133 69.671875 -135.1875 60.921875 -135.1875 C 52.742188 -135.1875 46.070312 -133.066406 40.90625 -128.828125 C 35.738281 -124.597656 33.15625 -118.679688 33.15625 -111.078125 C 33.15625 -105.617188 34.695312 -101.164062 37.78125 -97.71875 C 40.863281 -94.28125 44.664062 -91.664062 49.1875 -89.875 C 53.707031 -88.082031 60.054688 -86.035156 68.234375 -83.734375 C 78.140625 -81.003906 86.101562 -78.3125 92.125 -75.65625 C 98.15625 -73.007812 103.320312 -68.921875 107.625 -63.390625 C 111.9375 -57.867188 114.09375 -50.375 114.09375 -40.90625 C 114.09375 -33.582031 112.15625 -26.691406 108.28125 -20.234375 C 104.40625 -13.773438 98.660156 -8.535156 91.046875 -4.515625 C 83.441406 -0.503906 74.476562 1.5 64.15625 1.5 Z M 64.15625 1.5 "/></g></g></g><g fill="#1a9fa8" fill-opacity="1"><g transform="translate(476.777365, 291.39946)"><g><path d="M 128.546875 -102.5 C 128.546875 -93.738281 126.535156 -85.734375 122.515625 -78.484375 C 118.503906 -71.234375 112.332031 -65.382812 104 -60.9375 C 95.675781 -56.488281 85.34375 -54.265625 73 -54.265625 L 50.171875 -54.265625 L 50.171875 0 L 13.34375 0 L 13.34375 -151.15625 L 73 -151.15625 C 85.050781 -151.15625 95.238281 -149.070312 103.5625 -144.90625 C 111.894531 -140.75 118.140625 -135.007812 122.296875 -127.6875 C 126.460938 -120.363281 128.546875 -111.96875 128.546875 -102.5 Z M 70.203125 -83.546875 C 77.234375 -83.546875 82.46875 -85.195312 85.90625 -88.5 C 89.351562 -91.800781 91.078125 -96.46875 91.078125 -102.5 C 91.078125 -108.53125 89.351562 -113.191406 85.90625 -116.484375 C 82.46875 -119.785156 77.234375 -121.4375 70.203125 -121.4375 L 50.171875 -121.4375 L 50.171875 -83.546875 Z M 70.203125 -83.546875 "/></g></g></g><g fill="#1a9fa8" fill-opacity="1"><g transform="translate(632.672602, 291.39946)"><g><path d="M 84.84375 1.5 C 70.625 1.5 57.59375 -1.796875 45.75 -8.390625 C 33.914062 -14.992188 24.515625 -24.21875 17.546875 -36.0625 C 10.585938 -47.90625 7.109375 -61.222656 7.109375 -76.015625 C 7.109375 -90.796875 10.585938 -104.070312 17.546875 -115.84375 C 24.515625 -127.613281 33.914062 -136.800781 45.75 -143.40625 C 57.59375 -150.007812 70.625 -153.3125 84.84375 -153.3125 C 99.050781 -153.3125 112.078125 -150.007812 123.921875 -143.40625 C 135.765625 -136.800781 145.09375 -127.613281 151.90625 -115.84375 C 158.726562 -104.070312 162.140625 -90.796875 162.140625 -76.015625 C 162.140625 -61.222656 158.691406 -47.90625 151.796875 -36.0625 C 144.910156 -24.21875 135.582031 -14.992188 123.8125 -8.390625 C 112.039062 -1.796875 99.050781 1.5 84.84375 1.5 Z M 84.84375 -32.078125 C 96.894531 -32.078125 106.546875 -36.097656 113.796875 -44.140625 C 121.046875 -52.179688 124.671875 -62.804688 124.671875 -76.015625 C 124.671875 -89.359375 121.046875 -100.015625 113.796875 -107.984375 C 106.546875 -115.953125 96.894531 -119.9375 84.84375 -119.9375 C 72.632812 -119.9375 62.90625 -115.988281 55.65625 -108.09375 C 48.40625 -100.195312 44.78125 -89.503906 44.78125 -76.015625 C 44.78125 -62.660156 48.40625 -52 55.65625 -44.03125 C 62.90625 -36.0625 72.632812 -32.078125 84.84375 -32.078125 Z M 84.84375 -32.078125 "/></g></g></g><g fill="#1a9fa8" fill-opacity="1"><g transform="translate(823.450312, 291.39946)"><g><path d="M 68.046875 1.5 C 56.992188 1.5 47.085938 -0.289062 38.328125 -3.875 C 29.566406 -7.46875 22.566406 -12.78125 17.328125 -19.8125 C 12.085938 -26.84375 9.328125 -35.3125 9.046875 -45.21875 L 48.234375 -45.21875 C 48.804688 -39.625 50.742188 -35.351562 54.046875 -32.40625 C 57.347656 -29.46875 61.65625 -28 66.96875 -28 C 72.425781 -28 76.734375 -29.253906 79.890625 -31.765625 C 83.046875 -34.273438 84.625 -37.753906 84.625 -42.203125 C 84.625 -45.929688 83.367188 -49.015625 80.859375 -51.453125 C 78.347656 -53.898438 75.257812 -55.910156 71.59375 -57.484375 C 67.9375 -59.066406 62.734375 -60.863281 55.984375 -62.875 C 46.222656 -65.882812 38.253906 -68.894531 32.078125 -71.90625 C 25.910156 -74.925781 20.597656 -79.378906 16.140625 -85.265625 C 11.691406 -91.148438 9.46875 -98.832031 9.46875 -108.3125 C 9.46875 -122.375 14.5625 -133.390625 24.75 -141.359375 C 34.945312 -149.328125 48.226562 -153.3125 64.59375 -153.3125 C 81.25 -153.3125 94.671875 -149.328125 104.859375 -141.359375 C 115.054688 -133.390625 120.515625 -122.300781 121.234375 -108.09375 L 81.390625 -108.09375 C 81.109375 -112.976562 79.316406 -116.816406 76.015625 -119.609375 C 72.710938 -122.410156 68.476562 -123.8125 63.3125 -123.8125 C 58.851562 -123.8125 55.257812 -122.625 52.53125 -120.25 C 49.8125 -117.882812 48.453125 -114.476562 48.453125 -110.03125 C 48.453125 -105.15625 50.75 -101.351562 55.34375 -98.625 C 59.9375 -95.894531 67.113281 -92.953125 76.875 -89.796875 C 86.632812 -86.492188 94.5625 -83.332031 100.65625 -80.3125 C 106.757812 -77.300781 112.035156 -72.921875 116.484375 -67.171875 C 120.941406 -61.429688 123.171875 -54.039062 123.171875 -45 C 123.171875 -36.382812 120.976562 -28.5625 116.59375 -21.53125 C 112.21875 -14.5 105.863281 -8.898438 97.53125 -4.734375 C 89.207031 -0.578125 79.378906 1.5 68.046875 1.5 Z M 68.046875 1.5 "/></g></g></g></svg>